<?xml version="1.0" encoding="UTF-8" standalone="no"?>
<!DOCTYPE svg PUBLIC "-//W3C//DTD SVG 1.1//EN"
 "http://www.w3.org/Graphics/SVG/1.1/DTD/svg11.dtd">
<!-- Generated by graphviz version 2.40.1 (20161225.0304)
 -->
<!-- Title: %3 Pages: 1 -->
<svg width="290pt" height="188pt"
 viewBox="0.00 0.00 290.16 188.00" xmlns="http://www.w3.org/2000/svg" xmlns:xlink="http://www.w3.org/1999/xlink">
<g id="graph0" class="graph" transform="scale(1 1) rotate(0) translate(4 184)">
<title>%3</title>
<polygon fill="#ffffff" stroke="transparent" points="-4,4 -4,-184 286.1611,-184 286.1611,4 -4,4"/>
<!-- N -->
<g id="node1" class="node">
<title>N</title>
<ellipse fill="none" stroke="#000000" cx="44.9841" cy="-162" rx="44.9682" ry="18"/>
<text text-anchor="middle" x="44.9841" y="-157.8" font-family="Times,serif" font-size="14.00" fill="#000000">Notebook</text>
</g>
<!-- K -->
<g id="node2" class="node">
<title>K</title>
<ellipse fill="none" stroke="#000000" cx="93.9841" cy="-90" rx="34.3354" ry="18"/>
<text text-anchor="middle" x="93.9841" y="-85.8" font-family="Times,serif" font-size="14.00" fill="#000000">Kernel</text>
</g>
<!-- N&#45;&gt;K -->
<g id="edge1" class="edge">
<title>N&#45;&gt;K</title>
<path fill="none" stroke="#000000" d="M56.8456,-144.5708C62.744,-135.9038 69.9883,-125.2592 76.5077,-115.6796"/>
<polygon fill="#000000" stroke="#000000" points="79.499,-117.505 82.2318,-107.2687 73.712,-113.5666 79.499,-117.505"/>
</g>
<!-- R -->
<g id="node3" class="node">
<title>R</title>
<ellipse fill="none" stroke="#000000" cx="124.9841" cy="-18" rx="42.5283" ry="18"/>
<text text-anchor="middle" x="124.9841" y="-13.8" font-family="Times,serif" font-size="14.00" fill="#000000">Renderer</text>
</g>
<!-- K&#45;&gt;R -->
<g id="edge2" class="edge">
<title>K&#45;&gt;R</title>
<path fill="none" stroke="#000000" d="M101.647,-72.2022C105.1495,-64.0675 109.3764,-54.2501 113.2652,-45.2181"/>
<polygon fill="#000000" stroke="#000000" points="116.5619,-46.4115 117.3019,-35.8425 110.1326,-43.6433 116.5619,-46.4115"/>
</g>
<!-- R&#45;&gt;N -->
<g id="edge3" class="edge">
<title>R&#45;&gt;N</title>
<path fill="none" stroke="#000000" d="M95.7262,-31.4155C79.5956,-40.4582 60.8828,-54.0296 50.9841,-72 40.6411,-90.7771 39.6441,-115.2079 40.9553,-133.8765"/>
<polygon fill="#000000" stroke="#000000" points="37.4728,-134.2273 41.9084,-143.8489 44.441,-133.5613 37.4728,-134.2273"/>
</g>
<!-- S -->
<g id="node4" class="node">
<title>S</title>
<ellipse fill="none" stroke="#000000" cx="148.9841" cy="-162" rx="34.8285" ry="18"/>
<text text-anchor="middle" x="148.9841" y="-157.8" font-family="Times,serif" font-size="14.00" fill="#000000">Source</text>
</g>
<!-- S&#45;&gt;K -->
<g id="edge5" class="edge">
<title>S&#45;&gt;K</title>
<path fill="none" stroke="#000000" d="M135.9499,-144.937C129.1003,-135.9703 120.5769,-124.8124 113.0044,-114.8993"/>
<polygon fill="#000000" stroke="#000000" points="115.7766,-112.7626 106.9248,-106.9405 110.2139,-117.0119 115.7766,-112.7626"/>
</g>
<!-- S&#45;&gt;R -->
<g id="edge4" class="edge">
<title>S&#45;&gt;R</title>
<path fill="none" stroke="#000000" d="M147.0462,-144C144.9764,-125.7813 141.3905,-96.8333 136.9841,-72 135.474,-63.4896 133.5426,-54.2889 131.6727,-45.9351"/>
<polygon fill="#000000" stroke="#000000" points="135.0228,-44.8852 129.3734,-35.9223 128.2003,-46.4519 135.0228,-44.8852"/>
</g>
<!-- W -->
<g id="node5" class="node">
<title>W</title>
<ellipse fill="none" stroke="#000000" cx="232.9841" cy="-90" rx="49.3546" ry="18"/>
<text text-anchor="middle" x="232.9841" y="-85.8" font-family="Times,serif" font-size="14.00" fill="#000000">WebServer</text>
</g>
<!-- W&#45;&gt;R -->
<g id="edge6" class="edge">
<title>W&#45;&gt;R</title>
<path fill="none" stroke="#000000" d="M209.283,-74.1993C193.7375,-63.8356 173.2387,-50.1697 156.3478,-38.9091"/>
<polygon fill="#000000" stroke="#000000" points="158.1511,-35.9049 147.8892,-33.27 154.2682,-41.7293 158.1511,-35.9049"/>
</g>
</g>
</svg>
